<?xml version="1.0" encoding="iso-8859-1"?>
<!-- Generator: Adobe Illustrator 19.0.0, SVG Export Plug-In . SVG Version: 6.00 Build 0)  -->
<svg version="1.1" id="Capa_1" xmlns="http://www.w3.org/2000/svg" xmlns:xlink="http://www.w3.org/1999/xlink" x="0px" y="0px"
	 viewBox="0 0 512.002 512.002" style="enable-background:new 0 0 512.002 512.002;" xml:space="preserve">
<path style="fill:#FFFFFF;" d="M494.221,99.335h-0.242h-77.483c-3.788,0-127.316,0-130.181,0h-0.242
	c-4.951,0-8.964,4.013-8.964,8.964c0,16.902,0,331.324,0,338.583c0,5.011,4.063,9.074,9.074,9.074c90.67,0,117.274,0,207.929,0
	c5.011,0,9.074-4.063,9.074-9.074V299.285V169.287v-60.988C503.185,103.348,499.172,99.335,494.221,99.335z"/>
<path style="fill:#E4EAF8;" d="M392.972,371.863c-20.191-36.211-53.384-66.768-95.897-86.219c0-4.041,0-171.944,0-177.344
	c0-4.951,4.013-8.964,8.964-8.964h-19.724h-0.242c-4.951,0-8.964,4.013-8.964,8.964c0,17.951,0,151.339,0,169.28
	c0,7.662,0,163.005,0,169.303c0,5.011,4.063,9.074,9.074,9.074c11.449,0,83.587,0,94.798,0
	C402.852,434.287,408.891,400.414,392.972,371.863z"/>
<path style="fill:#FFC850;" d="M470.81,99.335h-57.817c-6.6,0-12-5.4-12-12V67.43c0-6.6,5.4-12,12-12h57.817c6.6,0,12,5.4,12,12
	v19.904C482.81,93.935,477.41,99.335,470.81,99.335z"/>
<path style="fill:#FEA82F;" d="M470.81,77.382h-57.817c-6.254,0-11.423-4.852-11.948-10.976c-0.029,0.338-0.052,0.679-0.052,1.024
	v19.904c0,6.6,5.4,12,12,12h57.817c6.6,0,12-5.4,12-12V67.43c0-0.346-0.023-0.686-0.052-1.024
	C482.232,72.53,477.064,77.382,470.81,77.382z"/>
<path style="fill:#92E0C0;" d="M503.185,158.937L277.108,273.859v25.425c32.326,12.748,62.065,33.572,83.67,61.563
	c0.022,0.029,0.045,0.058,0.067,0.086c0.422,0.548,0.834,1.103,1.249,1.655l141.092-71.721V158.937z"/>
<path style="fill:#6DC296;" d="M299.741,286.883c-1.622-0.766-2.666-2.386-2.666-4.18V263.71l-19.968,10.149v3.719v21.706l0,0
	c6.474,2.553,13.391,5.674,19.967,9.09l0,0c26.679,13.851,48.028,32.164,63.704,52.472c0.022,0.029,0.045,0.058,0.067,0.086
	c0.422,0.548,0.834,1.103,1.249,1.655l18.82-9.567C361.689,326.562,334.235,303.172,299.741,286.883z"/>
<path style="fill:#FF9052;" d="M194.563,283.661c-79.756,0-148.637,40.009-180.941,97.943
	c-18.583,33.327,5.398,74.353,43.556,74.353h274.769c38.158,0,62.14-41.026,43.556-74.353
	C343.199,323.669,274.319,283.661,194.563,283.661z"/>
<path style="fill:#FF8031;" d="M34.298,381.603c30.9-55.415,95.265-94.424,170.603-97.712
	C119.76,280.176,46.83,322.05,13.623,381.603c-18.583,33.327,5.398,74.353,43.556,74.353h20.675
	C39.696,455.956,15.714,414.93,34.298,381.603z"/>
<g>
	<path style="fill:#474D54;" d="M495.535,92.143h-4.457c0.344-1.447,0.545-2.949,0.545-4.5V67.738c0-10.752-8.748-19.5-19.501-19.5
		h-11.408c-4.142,0-7.5,3.358-7.5,7.5s3.358,7.5,7.5,7.5h11.408c2.439,0,4.5,2.061,4.5,4.5v19.904c0,2.439-2.061,4.5-4.5,4.5
		h-57.817c-2.439,0-4.5-2.061-4.5-4.5V67.738c0-2.439,2.061-4.5,4.5-4.5h11.408c4.142,0,7.5-3.358,7.5-7.5s-3.358-7.5-7.5-7.5
		h-11.408c-10.752,0-19.5,8.748-19.5,19.5v19.904c0,1.551,0.201,3.053,0.545,4.5H287.629c-9.212,0-16.707,7.495-16.707,16.707
		c0,9.227,0,173.848,0,180.013c-25.03-8.489-50.928-12.394-76.045-12.394c-83.833,0-154.508,42.636-187.491,101.791
		c-21.401,38.38,6.263,85.506,50.106,85.506h119.884c4.142,0,7.5-3.357,7.5-7.5c0-4.143-3.358-7.5-7.5-7.5H57.493
		c-32.46,0-52.795-34.88-37.005-63.201c13.073-23.447,32.309-43.48,55.554-58.967v46.363c0,4.143,3.358,7.5,7.5,7.5
		s7.5-3.357,7.5-7.5v-55.419c12.713-6.936,26.367-12.601,40.668-16.866v72.286c0,4.143,3.358,7.5,7.5,7.5s7.5-3.357,7.5-7.5v-76.201
		c13.182-2.932,26.806-4.688,40.667-5.155v81.356c0,4.143,3.358,7.5,7.5,7.5s7.5-3.357,7.5-7.5v-81.356
		c13.861,0.467,27.485,2.223,40.668,5.155v76.2c0,4.143,3.358,7.5,7.5,7.5s7.5-3.357,7.5-7.5v-72.286
		c14.3,4.265,27.954,9.93,40.668,16.866v55.419c0,4.143,3.358,7.5,7.5,7.5c4.142,0,7.5-3.357,7.5-7.5v-46.363
		c24.616,16.4,43.256,36.911,55.554,58.967c15.808,28.352-4.579,63.201-37.005,63.201H212.378c-4.142,0-7.5,3.357-7.5,7.5
		c0,4.143,3.358,7.5,7.5,7.5c17.422,0,275.056,0,283.049,0c9.139,0,16.574-7.436,16.574-16.574c0-10.307,0-308.876,0-338.583
		C512.001,99.528,504.615,92.143,495.535,92.143z M285.923,294.55v-15.781L497,171.472v115.104l-131.476,66.833
		C345.711,328.828,318.295,308.167,285.923,294.55z M287.629,107.143c9.598,0,197.464,0,207.906,0c0.808,0,1.464,0.657,1.464,1.464
		v46.037L285.923,261.942V108.849C285.923,107.908,286.688,107.143,287.629,107.143z M495.426,448.764H371.037
		c9.483-8.735,16.233-21.034,18.146-34.47c2.737-19.237-4.076-33.112-14.606-48.661L497,303.402V447.19
		C497,448.058,496.294,448.764,495.426,448.764z"/>
	<path style="fill:#474D54;" d="M373.042,144.388h30.552c4.142,0,7.5-3.358,7.5-7.5s-3.358-7.5-7.5-7.5h-30.552
		c-4.142,0-7.5,3.358-7.5,7.5S368.9,144.388,373.042,144.388z"/>
</g>
<g>
</g>
<g>
</g>
<g>
</g>
<g>
</g>
<g>
</g>
<g>
</g>
<g>
</g>
<g>
</g>
<g>
</g>
<g>
</g>
<g>
</g>
<g>
</g>
<g>
</g>
<g>
</g>
<g>
</g>
</svg>
